<svg xmlns="http://www.w3.org/2000/svg" width="165.786" height="44.289" viewBox="0 0 165.786 44.289">
    <defs>
        <style>
            .cls-1{fill:#f4313f}.cls-2{fill:#06a7e5}
        </style>
    </defs>
    <g id="ZooCity-vector" transform="translate(-17.81 -88.756)">
        <g id="Group_9" data-name="Group 9" transform="translate(83.449 104.635)">
            <path id="Path_1" d="M329.845 171.117a3.723 3.723 0 0 0-.509-1.052 3.2 3.2 0 0 0-.761-.765 4.277 4.277 0 0 0-.946-.506 5.436 5.436 0 0 0-1.066-.283 7.011 7.011 0 0 0-1.114-.088c-.221 0-.444.013-.672.031l2.169-5.645c.064-.164.124-.336.181-.52a1.638 1.638 0 0 0 .086-.486.523.523 0 0 0-.219-.493 1.246 1.246 0 0 0-.626-.128h-6.708a7.746 7.746 0 0 0-1.214.1 5.612 5.612 0 0 0-1.161.312 4.681 4.681 0 0 0-1.03.557 3.6 3.6 0 0 0-.829.838 4 4 0 0 0-.555 1.145 4.967 4.967 0 0 0-.2 1.475 5.027 5.027 0 0 0 .2 1.493 3.969 3.969 0 0 0 .555 1.145 3.534 3.534 0 0 0 .829.834 4.657 4.657 0 0 0 1.03.551 5.9 5.9 0 0 0 1.161.307 7.744 7.744 0 0 0 1.214.1 9.231 9.231 0 0 0 1.008-.06l-1.742 4.517c-.122.314-.219.577-.29.787a1.958 1.958 0 0 0-.106.626.671.671 0 0 0 .177.455.93.93 0 0 0 .7.2h6.178c.044 0 .042 0 .007-.007a6.847 6.847 0 0 0 .971-.084 5.289 5.289 0 0 0 1.066-.285 4.21 4.21 0 0 0 .946-.513 3.265 3.265 0 0 0 .761-.769 3.7 3.7 0 0 0 .509-1.052 4.567 4.567 0 0 0 .186-1.355 4.626 4.626 0 0 0-.186-1.382zm-5.811-.524a1.914 1.914 0 0 1 .274.692 5.638 5.638 0 0 1 .1 1.2 4.612 4.612 0 0 1-.126 1.2 2 2 0 0 1-.316.692.908.908 0 0 1-.409.316 1.278 1.278 0 0 1-.4.075 1.138 1.138 0 0 1-.453-.1.884.884 0 0 1-.257-.179l1.523-3.969a.564.564 0 0 1 .064.073zm-2.841-2.928a2.1 2.1 0 0 1-.3-.752 6.105 6.105 0 0 1-.113-1.311 5.055 5.055 0 0 1 .137-1.307 2.151 2.151 0 0 1 .343-.752.972.972 0 0 1 .444-.343 1.388 1.388 0 0 1 .433-.082 1.215 1.215 0 0 1 .493.106 1.082 1.082 0 0 1 .438.376c.011.015.022.035.031.051l-1.645 4.267a.893.893 0 0 1-.261-.253z" class="cls-1" data-name="Path 1" transform="translate(-314.67 -161.045)"/>
            <g id="Group_1" data-name="Group 1" transform="translate(48.969)">
                <path id="Path_2" d="M544.445 173.507a.637.637 0 0 0-.161.027c-.064.018-.135.035-.208.053s-1.2.378-1.287.4a1.223 1.223 0 0 1-.245.027.944.944 0 0 1-.776-.31 1.732 1.732 0 0 1-.252-1.07V161.2a.916.916 0 0 0-.035-.332.477.477 0 0 0-.3-.268.586.586 0 0 0-.166-.027.894.894 0 0 0-.347.044c-.4.159-4.325 2.452-4.325 2.452a.353.353 0 0 0-.168.245 1.75 1.75 0 0 0-.031.321v8.865a6.625 6.625 0 0 0 .23 1.948 2.4 2.4 0 0 0 .641 1.081 1.965 1.965 0 0 0 .971.467 6.746 6.746 0 0 0 1.216.1 4.924 4.924 0 0 0 .6-.04q.707-.08 1.344-.214t1.187-.305c.367-.115 1.734-.57 2-.685a.457.457 0 0 0 .15-.1.377.377 0 0 0 .086-.29v-.825c-.007-.084-.047-.13-.124-.13z" class="cls-2" data-name="Path 2" transform="translate(-536.14 -160.57)"/>
            </g>
            <g id="Group_2" data-name="Group 2" transform="translate(70.842 4.088)">
                <path id="Path_3" d="M646.47 179.062a.121.121 0 0 0-.04 0 5.685 5.685 0 0 0-2.921.94c-.007-.007-.015-.009-.022-.015a5.321 5.321 0 0 0-2.994-.926 5.427 5.427 0 0 0-3.509 1.307c-.02.013-.033.027-.051.04a4.224 4.224 0 0 0-1.1 1.289.246.246 0 0 0-.022.035 5.877 5.877 0 0 0-.661 1.952h-.013c-.013.093-.02.188-.029.281s-.02.2-.027.305c0 .055-.007.106-.009.159s-.007.084-.007.126v.453a.992.992 0 0 0 .007.111c0 .071.007.142.009.214.007.042.009.082.013.124.013.139.02.279.04.42a2.951 2.951 0 0 0 .133.577 5.657 5.657 0 0 0 .535 1.36.081.081 0 0 0 .013.015 4.191 4.191 0 0 0 1.125 1.327c.015.009.027.02.042.029a5.388 5.388 0 0 0 3.518 1.315 6.417 6.417 0 0 0 .725-.042 3.839 3.839 0 0 0 2.14-.982 3.736 3.736 0 0 0 1.212-2.379V182.5a1.818 1.818 0 0 1 1.592-1.833 1.766 1.766 0 0 1 1.939 1.758v5.393a1.894 1.894 0 0 1-.347 1.1.134.134 0 0 0-.009.013 1.293 1.293 0 0 1-.544.336 2.059 2.059 0 0 1-.223.055v1.078c.055.013.111.022.166.033a5.6 5.6 0 0 0 4.473-5.656 5.512 5.512 0 0 0-5.154-5.715zm-4.351 8.882a1.1 1.1 0 1 1-2.193 0v-6.184a1.1 1.1 0 1 1 2.193 0z" class="cls-2" data-name="Path 3" transform="translate(-635.061 -179.06)"/>
            </g>
            <g id="Group_4" data-name="Group 4" transform="translate(58.184 4.086)">
                <g id="Group_3" data-name="Group 3">
                    <path id="Path_4" d="M588.331 181.739a.034.034 0 0 0-.013-.018 4.258 4.258 0 0 0-1.17-1.324.269.269 0 0 0-.044-.031 5.718 5.718 0 0 0-7.29-.007l-.055.038a4.316 4.316 0 0 0-1.145 1.287c-.007.013-.016.024-.022.038a5.963 5.963 0 0 0-.774 2.821 7.92 7.92 0 0 0 .071 1.322 5.786 5.786 0 0 0 1.667 3.589 4.222 4.222 0 0 0 1.654.893 3.022 3.022 0 0 0 1.537.049v-8.226a1.515 1.515 0 1 1 3.029 0v5.207a1.935 1.935 0 0 1-1.612 1.9v1.117a3.02 3.02 0 0 0 1.537-.049 4.171 4.171 0 0 0 1.652-.893 5.786 5.786 0 0 0 1.667-3.584 7.742 7.742 0 0 0 .075-1.324 6.038 6.038 0 0 0-.764-2.805z" class="cls-2" data-name="Path 4" transform="translate(-577.813 -179.05)"/>
                </g>
            </g>
            <g id="Group_5" data-name="Group 5" transform="translate(16.518 4.05)">
                <path id="Path_5" d="M402.222 179.777a3.813 3.813 0 0 0-3.445-.743 3.458 3.458 0 0 0-2.005 1.669 3.452 3.452 0 0 0-2.005-1.669 3.816 3.816 0 0 0-3.445.743 5.693 5.693 0 0 0-1.944 4.349 7.024 7.024 0 0 0 1.74 5.15 4.164 4.164 0 0 0 1.654.933 2.868 2.868 0 0 0 1.159.117v-8.7a1.1 1.1 0 0 1 2.193 0v2.644h1.307v-2.227a1.515 1.515 0 1 1 3.029 0v4.936a6.053 6.053 0 0 1-.062.854 1.613 1.613 0 0 1-.391.9 1.306 1.306 0 0 1-.544.354 1.586 1.586 0 0 1-.223.06v1.123a2.891 2.891 0 0 0 1.539-.053 4.191 4.191 0 0 0 1.654-.933 7.025 7.025 0 0 0 1.74-5.15 5.721 5.721 0 0 0-1.951-4.357z" class="cls-1" data-name="Path 5" transform="translate(-389.374 -178.885)"/>
            </g>
            <g id="Group_7" data-name="Group 7" transform="translate(88.859 4.086)">
                <g id="Group_6" data-name="Group 6">
                    <path id="Path_6" d="M727.061 181.739a.035.035 0 0 0-.013-.018 4.258 4.258 0 0 0-1.17-1.324.269.269 0 0 0-.044-.031 5.718 5.718 0 0 0-7.29-.007l-.055.038a4.316 4.316 0 0 0-1.145 1.287l-.022.038a5.963 5.963 0 0 0-.774 2.821 7.926 7.926 0 0 0 .071 1.322 5.786 5.786 0 0 0 1.667 3.589 4.222 4.222 0 0 0 1.654.893 3.029 3.029 0 0 0 1.539.049v-8.226a1.515 1.515 0 1 1 3.029 0v5.207a1.935 1.935 0 0 1-1.612 1.9v1.117a3.029 3.029 0 0 0 1.539-.049 4.171 4.171 0 0 0 1.652-.893 5.786 5.786 0 0 0 1.667-3.584 7.742 7.742 0 0 0 .075-1.324 6.042 6.042 0 0 0-.768-2.805z" class="cls-2" data-name="Path 6" transform="translate(-716.543 -179.05)"/>
                </g>
            </g>
            <g id="Group_8" data-name="Group 8" transform="translate(32.741 4.05)">
                <path id="Path_7" d="M475.591 179.777a3.813 3.813 0 0 0-3.445-.743 3.458 3.458 0 0 0-2.005 1.669 3.452 3.452 0 0 0-2.005-1.669 3.816 3.816 0 0 0-3.445.743 5.693 5.693 0 0 0-1.944 4.349 7.025 7.025 0 0 0 1.74 5.15 4.165 4.165 0 0 0 1.654.933 2.868 2.868 0 0 0 1.159.117v-8.7a1.1 1.1 0 1 1 2.193 0v2.644h1.307v-2.227a1.515 1.515 0 1 1 3.029 0v4.936a6.053 6.053 0 0 1-.062.854 1.613 1.613 0 0 1-.391.9 1.306 1.306 0 0 1-.544.354 1.585 1.585 0 0 1-.223.06v1.123a2.891 2.891 0 0 0 1.539-.053 4.191 4.191 0 0 0 1.654-.933 7.025 7.025 0 0 0 1.74-5.15 5.713 5.713 0 0 0-1.951-4.357z" class="cls-1" data-name="Path 7" transform="translate(-462.744 -178.885)"/>
            </g>
        </g>
        <g id="Group_11" data-name="Group 11" transform="translate(17.81 88.756)">
            <g id="Group_10" data-name="Group 10">
                <path id="Path_8" d="M41.75 93.482a19.494 19.494 0 0 1 2.947-1.8A27.516 27.516 0 0 0 33.805 88.8a15.041 15.041 0 0 0-8.6 2.326 16.044 16.044 0 0 0-5.358 5.751 16.551 16.551 0 0 0-2.034 7.967c0 .358.022.741.062 1.137a20.077 20.077 0 0 0 .73 3.631l.035.117.038.117c.035.106.071.21.1.307 0-.027-.007-.053-.011-.08a17.54 17.54 0 0 1-.168-2.437 14.828 14.828 0 0 1 1.787-7.177 11.755 11.755 0 0 1 5.021-4.946 12.982 12.982 0 0 1 1.665-.685 14.633 14.633 0 0 1 2.187-.544 25.549 25.549 0 0 1 10.857.922 7.734 7.734 0 0 1 1.634-1.724z" class="cls-1" data-name="Path 8" transform="translate(-17.81 -88.778)"/>
                <path id="Path_9" d="M159.821 88.759c-3.5.073-7 1.638-9.271 2.713l.046.261.612 3.5c.4.073.944.184 1.554.341.778-.305 1.473-.551 2.076-.741a.065.065 0 0 0 .02 0c.06-.024.119-.044.177-.066a15.108 15.108 0 0 1 2.806-.635c.245-.02.493-.031.741-.031a13.276 13.276 0 0 1 12.756 9.961c.082.3.153.612.212.926a.008.008 0 0 0 0 .007 13.817 13.817 0 0 1 .248 2.62 18.655 18.655 0 0 1-4.332 11.564l-.184.232-.157 1.364c-.007.046-.144 1.11-.153 1.161a.2.2 0 0 0 .022-.02.143.143 0 0 0 .02-.018c.049-.044.1-.086.148-.133a.367.367 0 0 0 .031-.029 24.949 24.949 0 0 0 1.988-1.963c.179-.2.36-.416.553-.648.283-.338.553-.677.8-1a22.172 22.172 0 0 0 4.807-11.522c.013-.153.027-.3.038-.455q.046-.66.046-1.327c.011-8.891-6.994-16.239-15.604-16.062z" class="cls-1" data-name="Path 9" transform="translate(-121.2 -88.756)"/>
            </g>
            <path id="Path_10" d="M83.934 109.764c-1.247-1.5-4.276-2.273-5.793-2.576-.544-.108-.9-.159-.9-.159l-.721-4.119a18.992 18.992 0 0 0-4.06 2.282 6.587 6.587 0 0 0-1.28 1.308 11.871 11.871 0 0 0-1.645 3.155s-1.654 1.221-3.184 2.545a55.6 55.6 0 0 0-9.791 10.987 16.012 16.012 0 0 0 2.6 3.084l2.207-3.381c4.741-7.027 7.241-7.615 10.826-9.985l.241-.157 3.606-2.3-.517 2.384s.838.23 2.554.88a5.432 5.432 0 0 1 3.41 4.179c.146 1.683 1.238 1.718 1.329 1.718h.007a4.247 4.247 0 0 1-1.53 3.279 4.54 4.54 0 0 1-3.257 1.17 6.526 6.526 0 0 1-1.4-.144 11.9 11.9 0 0 0-1.928 7.843c.206-.071.413-.148.628-.228a11.578 11.578 0 0 1 1.664-.536 3.6 3.6 0 0 1 .745-.08 2.757 2.757 0 0 1 1.313.312 2.408 2.408 0 0 1 1.278 1.738 2.723 2.723 0 0 1-.031 1.037 14.55 14.55 0 0 0 1.137-1.7 18.437 18.437 0 0 1 .17-7.3s.23-.343 1.736-.743 4.292.137 6.868-.871 3.151-4.592 3.151-4.592l.287-1.546c-10.596-1.876-5.583-2.498-9.72-7.484z" class="cls-2" data-name="Path 10" transform="translate(-47.992 -99.78)"/>
            <path id="Path_11" d="M56.218 150.871a8.464 8.464 0 0 1-6.664 2.936 12.013 12.013 0 0 1-3.951-.674 1.406 1.406 0 0 0 .447.055c.124 0 .245-.007.345-.009a16.593 16.593 0 0 0 5.424-.957 7.7 7.7 0 0 0 2.872-1.753 1.767 1.767 0 0 0-.25-2.852 1.866 1.866 0 0 0-.9-.208 2.633 2.633 0 0 0-.562.062c-1.125.239-2.136.825-3.283 1.026a11.922 11.922 0 0 1-2.043.168 16.927 16.927 0 0 1-2.943-.279 18.085 18.085 0 0 1-5.422-2.18 26.329 26.329 0 0 1-4.705-3.458 15.968 15.968 0 0 1-5.428-13.034 12.294 12.294 0 0 1 1.557-5.373 5.3 5.3 0 0 1 1.055-1.38 9.079 9.079 0 0 0-2.5 1.84 13.63 13.63 0 0 0-3.781 9.461c0 5.322 2.527 9.645 5.66 13.152.809.9 1.667 1.764 2.554 2.591q1.191 1.111 2.441 2.176c.146.124.292.25.44.374q.391.328.785.65.541.441 1.088.873a.233.233 0 0 1 .027.022q.859.677 1.736 1.32a22.739 22.739 0 0 0 7.438 3.865 11.25 11.25 0 0 0 2.932.4c.19 0 .383 0 .575-.015a10.082 10.082 0 0 0 4.948-1.9 11.031 11.031 0 0 0 1.771-1.535 19.429 19.429 0 0 0 1.731-2.136 18.138 18.138 0 0 0 2.863-6.156 13.966 13.966 0 0 0 .38-4.325 1.712 1.712 0 0 0-1.5-1.669 1.668 1.668 0 0 0-.977.36c-1.319.951-.24 3.98-4.16 8.562z" class="cls-2" data-name="Path 11" transform="translate(-23.792 -115.397)"/>
            <path id="Path_12" d="M175.581 219.029a11.786 11.786 0 0 1-.486 1.824l-.013.046a6.557 6.557 0 0 1-2.282 3.211c-.471.356-.949.714-1.229.915-.153.111-.3.219-.444.321-.325.232-.617.436-.871.615-.562.391-.944.643-1.081.736l-.86.568-1.753 1.159a15.15 15.15 0 0 0 2.114-1.888 19.341 19.341 0 0 0 1.3-1.559 17.605 17.605 0 0 0 3.675-11.46.646.646 0 0 1 .471-.69 1.339 1.339 0 0 1 1.408.716c.704 1.301.337 4.08.051 5.486z" class="cls-2" data-name="Path 12" transform="translate(-133.67 -185.371)"/>
            <path id="Path_13" d="M210.39 216.253a3.676 3.676 0 0 1 .628 2.273v.029q0 .066-.007.133a.544.544 0 0 1 0 .057 22.384 22.384 0 0 1-.307 2.479 1.6 1.6 0 0 1-.5.9l-.04.038-.383.343c-.413.369-.845.739-1.316 1.134-.2.168-.4.332-.593.493.093-.214.175-.433.248-.659l.009-.024a12.776 12.776 0 0 0 .522-1.948 14.1 14.1 0 0 0 .226-5.048.6.6 0 0 1 .473-.716h.007a1.169 1.169 0 0 1 1.033.516z" class="cls-2" data-name="Path 13" transform="translate(-165.838 -187.654)"/>
        </g>
    </g>
</svg>
